<svg xmlns="http://www.w3.org/2000/svg" width="800" height="390" viewBox="0 0 800 390" role="img" aria-labelledby="title desc">
<title id="title">OpenSpec workflow</title><desc id="desc">Start points to Explore (Optional), then Propose to Grill Me (Optional) to Apply to Archive and back to Explore.</desc>
<defs><marker id="arrow" viewBox="0 0 10 10" refX="9" refY="5" markerWidth="7" markerHeight="7" orient="auto-start-reverse"><path d="M 0 0 L 10 5 L 0 10 z" fill="#cccccc"/></marker></defs>
<style>text{font-family:Arial,Helvetica,sans-serif;font-size:17px;fill:#cccccc;text-anchor:middle}rect{fill:#1f2020;stroke:#cccccc;stroke-width:1.5}.edge{fill:none;stroke:#cccccc;stroke-width:2;marker-end:url(#arrow)}.both{marker-start:url(#arrow)}.optional{font-size:13px;fill:#cccccc}.background{fill:#333333;stroke:none}</style>
<rect width="800" height="390" class="background"/>
<circle cx="117" cy="47" r="30" fill="#1f2020" stroke="#cccccc" stroke-width="1.5"/><text x="117" y="53">Start</text><path class="edge" d="M 117 77 V 128"/>
<g transform="translate(0 100)">
<path class="edge" d="M 212 58 H 305"/><path class="edge" d="M 495 58 H 588"/><path class="edge" d="M 683 86 V 218 H 561"/><path class="edge" d="M 370 218 H 263"/><path class="edge" d="M 72 218 H 24 V 116 H 117 V 87"/><rect x="22" y="30" width="190" height="56" rx="10"/><text x="117.0" y="54">Explore</text><text class="optional" x="117.0" y="73">(Optional)</text><rect x="305" y="30" width="190" height="56" rx="10"/><text x="400.0" y="64">Propose</text><rect x="588" y="30" width="190" height="56" rx="10"/><text x="683.0" y="54">Grill Me</text><text class="optional" x="683.0" y="73">(Optional)</text><rect x="370" y="190" width="190" height="56" rx="10"/><text x="465.0" y="224">Apply</text><rect x="72" y="190" width="190" height="56" rx="10"/><text x="167.0" y="224">Archive</text></g></svg>
